{"title":"Dum - Happy (2015) - Hindi Dubbed WEBHD 720p - AVC - AAC -={SPAR","uid":12031859,"size":1093950336,"categoryP":"video","categoryS":"movies","magnet":"?xt=urn:btih:9361b7f141f2d7c1fc85898d90295faef17f5c8b&amp;dn=Dum+-+Happy+%282015%29+-+Hindi+Dubbed+WEBHD+720p+-+AVC+-+AAC+-%3D%7BSPAR&amp;tr=udp%3A%2F%2Ftracker.openbittorrent.com%3A80&amp;tr=udp%3A%2F%2Fopen.demonii.com%3A1337&amp;tr=udp%3A%2F%2Ftracker.coppersurfer.tk%3A6969&amp;tr=udp%3A%2F%2Fexodus.desync.com%3A6969","seeders":1,"leechers":2,"uploader":"SS132203","files":2,"time":1434587573,"description":"Dum - Happy (2015) - Hindi Dubbed WEBHD 720p - AVC - AAC -={SPARROW}=-\n &lt;a href=&quot;\nhttp://imgsparrow.co/image/Et&quot; rel=&quot;nofollow&quot; target=&quot;_NEW&quot;&gt;\nhttp://imgsparrow.co/image/Et&lt;/a&gt;\n\nInfo : - \n\nSOURCE: IcTv (Thanks a Ton)\n\nFormat                      : MPEG-4\nFormat profile              : Base Media / Version 2\nCodec ID                    : mp42\nFile size                   : 1.02 GiB\nDuration                    : 2h 1mn\nOverall bit rate mode       : Variable\nOverall bit rate            : 1 199 Kbps\nWriting application         : HandBrake 0.10.1 2015030800\n\nVideo\nID                          : 1\nFormat                      : AVC\nFormat/Info                 : Advanced Video Codec\nFormat profile              : &lt;a class=&quot;__cf_email__&quot; href=&quot;/cdn-cgi/l/email-protection&quot; data-cfemail=&quot;3578545c5b7579011b04&quot;&gt;[email&amp;#160;protected]&lt;/a&gt;&lt;script data-cfhash='f9e31' type=&quot;text/javascript&quot;&gt;\n/* &lt;![CDATA[ */!function(){try{var t=&quot;currentScript&quot;in document?document.currentScript:function(){for(var t=document.getElementsByTagName(&quot;script&quot;),e=t.length;e--;)if(t[e].getAttribute(&quot;data-cfhash&quot;))return t[e]}();if(t&amp;&amp;t.previousSibling){var e,r,n,i,c=t.previousSibling,a=c.getAttribute(&quot;data-cfemail&quot;);if(a){for(e=&quot;&quot;,r=parseInt(a.substr(0,2),16),n=2;a.length-n;n+=2)i=parseInt(a.substr(n,2),16)^r,e+=String.fromCharCode(i);e=document.createTextNode(e),c.parentNode.replaceChild(e,c)}t.parentNode.removeChild(t);}}catch(u){}}()/* ]]&gt; */&lt;/script&gt;\nFormat settings, CABAC      : Yes\nFormat settings, ReFrames   : 4 frames\nCodec ID                    : avc1\nCodec ID/Info               : Advanced Video Coding\nDuration                    : 2h 1mn\nBit rate                    : 1 000 Kbps\nWidth                       : 1 280 pixels\nHeight                      : 550 pixels\nDisplay aspect ratio        : 2.35:1\nFrame rate mode             : Constant\nFrame rate                  : 25.000 fps\nColor space                 : YUV\nChroma subsampling          : 4:2:0\nBit depth                   : 8 bits\nScan type                   : Progressive\nBits/(Pixel*Frame)          : 0.057\nStream size                 : 870 MiB (83%)\nWriting library             : x264 core 142 r2479 dd79a61\nColor range                 : Limited\nColor primaries             : BT.709\nTransfer characteristics    : BT.709\nMatrix coefficients         : BT.709\n\nAudio\nID                          : 2\nFormat                      : AAC\nFormat/Info                 : Advanced Audio Codec\nFormat profile              : LC\nCodec ID                    : 40\nDuration                    : 2h 1mn\nBit rate mode               : Variable\nBit rate                    : 192 Kbps\nChannel(s)                  : 2 channels\nChannel positions           : Front: L R\nSampling rate               : 48.0 KHz\nCompression mode            : Lossy\nStream size                 : 167 MiB (16%)\nTitle                       : Stereo / Stereo\nLanguage                    : Hindi\n\nScreens : - \n &lt;a href=&quot;\nhttp://imgsparrow.co/image/A0&quot; rel=&quot;nofollow&quot; target=&quot;_NEW&quot;&gt;\nhttp://imgsparrow.co/image/A0&lt;/a&gt; &lt;a href=&quot;\nhttp://imgsparrow.co/image/AB&quot; rel=&quot;nofollow&quot; target=&quot;_NEW&quot;&gt;\nhttp://imgsparrow.co/image/AB&lt;/a&gt; &lt;a href=&quot;\nhttp://imgsparrow.co/image/AK&quot; rel=&quot;nofollow&quot; target=&quot;_NEW&quot;&gt;\nhttp://imgsparrow.co/image/AK&lt;/a&gt; &lt;a href=&quot;\nhttp://imgsparrow.co/image/A2&quot; rel=&quot;nofollow&quot; target=&quot;_NEW&quot;&gt;\nhttp://imgsparrow.co/image/A2&lt;/a&gt; &lt;a href=&quot;\nhttp://imgsparrow.co/image/A3&quot; rel=&quot;nofollow&quot; target=&quot;_NEW&quot;&gt;\nhttp://imgsparrow.co/image/A3&lt;/a&gt; &lt;a href=&quot;\nhttp://imgsparrow.co/image/Ai&quot; rel=&quot;nofollow&quot; target=&quot;_NEW&quot;&gt;\nhttp://imgsparrow.co/image/Ai&lt;/a&gt; &lt;a href=&quot;\nhttp://imgsparrow.co/image/AV&quot; rel=&quot;nofollow&quot; target=&quot;_NEW&quot;&gt;\nhttp://imgsparrow.co/image/AV&lt;/a&gt; &lt;a href=&quot;\nhttp://imgsparrow.co/image/Al&quot; rel=&quot;nofollow&quot; target=&quot;_NEW&quot;&gt;\nhttp://imgsparrow.co/image/Al&lt;/a&gt; &lt;a href=&quot;\nhttp://imgsparrow.co/image/As&quot; rel=&quot;nofollow&quot; target=&quot;_NEW&quot;&gt;\nhttp://imgsparrow.co/image/As&lt;/a&gt; &lt;a href=&quot;\nhttp://imgsparrow.co/image/AS&quot; rel=&quot;nofollow&quot; target=&quot;_NEW&quot;&gt;\nhttp://imgsparrow.co/image/AS&lt;/a&gt;\n &lt;a href=&quot;\nhttp://imgsparrow.co/image/N2&quot; rel=&quot;nofollow&quot; target=&quot;_NEW&quot;&gt;\nhttp://imgsparrow.co/image/N2&lt;/a&gt;","torrent":{"xt":"urn:btih:9361b7f141f2d7c1fc85898d90295faef17f5c8b","amp;dn":"Dum+-+Happy+%282015%29+-+Hindi+Dubbed+WEBHD+720p+-+AVC+-+AAC+-%3D%7BSPAR","amp;tr":["udp%3A%2F%2Ftracker.openbittorrent.com%3A80","udp%3A%2F%2Fopen.demonii.com%3A1337","udp%3A%2F%2Ftracker.coppersurfer.tk%3A6969","udp%3A%2F%2Fexodus.desync.com%3A6969"],"infoHash":"9361b7f141f2d7c1fc85898d90295faef17f5c8b","infoHashBuffer":{"type":"Buffer","data":[147,97,183,241,65,242,215,193,252,133,137,141,144,41,95,174,241,127,92,139]},"announce":[],"urlList":[]}}